<svg xmlns="http://www.w3.org/2000/svg" viewBox="0 0 156.24 100.27"><defs><style>.cls-1{fill:#1d1d1b;}</style></defs><g id="Layer_2" data-name="Layer 2"><g id="Layer_2-2" data-name="Layer 2"><path class="cls-1" d="M3.5,49.7A9.28,9.28,0,0,1,.88,45.57,17,17,0,0,1,0,40H1.47a13.41,13.41,0,0,0,1,5.46,8.55,8.55,0,0,0,2.37,3.25,7.61,7.61,0,0,0,3.12,1.54,14,14,0,0,0,3.15.39,12.83,12.83,0,0,0,3.61-.53,9,9,0,0,0,3.21-1.67,8.38,8.38,0,0,0,2.32-3,11,11,0,0,0,.87-4.62,15.13,15.13,0,0,0-.91-5.5,15.11,15.11,0,0,0-2.41-4.16,20.51,20.51,0,0,0-3.4-3.25q-1.89-1.44-3.85-2.84T6.89,22.44a20.94,20.94,0,0,1-3.11-2.91A12.63,12.63,0,0,1,.7,11.27V10.19A11.34,11.34,0,0,1,.93,8.12,17.09,17.09,0,0,1,1.7,5.53,7.5,7.5,0,0,1,3.43,2.94,9.89,9.89,0,0,1,11.06,0q5,0,7.49,2.94a7.72,7.72,0,0,1,1.5,2.77,14.63,14.63,0,0,1,.6,2.86,16.41,16.41,0,0,1,.1,2.31c0,.64,0,1,0,1H19.25A19.59,19.59,0,0,0,19.18,9a17,17,0,0,0-.52-2.63,6.21,6.21,0,0,0-1.3-2.41A6.87,6.87,0,0,0,14.77,2.1a9.79,9.79,0,0,0-3.71-.63q-4.27,0-6.51,2.45A7.3,7.3,0,0,0,3.08,6.23a13.46,13.46,0,0,0-.7,2.34,14.13,14.13,0,0,0-.21,2.63,10.29,10.29,0,0,0,.77,4.09,13.49,13.49,0,0,0,2,3.29,17.85,17.85,0,0,0,2.91,2.77C9,22.19,10.13,23,11.3,23.87q2,1.39,4,2.94a22.84,22.84,0,0,1,3.59,3.5,16.15,16.15,0,0,1,3.65,10.5,10.85,10.85,0,0,1-3.78,8.82,11.75,11.75,0,0,1-7.7,2.52,17,17,0,0,1-3.68-.46A8.9,8.9,0,0,1,3.5,49.7Z"/><path class="cls-1" d="M55.23,40.18v1A10.55,10.55,0,0,1,55,43.44a18,18,0,0,1-.87,2.76,8.85,8.85,0,0,1-1.78,2.73,9.68,9.68,0,0,1-7.47,2.87,9.49,9.49,0,0,1-7.32-2.87,8.59,8.59,0,0,1-1.78-2.8,14,14,0,0,1-.8-2.9,16,16,0,0,1-.21-2.35V.35h1.47v41a7.64,7.64,0,0,0,.14,1.44A10.6,10.6,0,0,0,37,45.4,8.38,8.38,0,0,0,38.58,48a8,8,0,0,0,6.25,2.38,8.49,8.49,0,0,0,6.47-2.45,8.37,8.37,0,0,0,1.51-2.42A12.34,12.34,0,0,0,53.55,43a9.49,9.49,0,0,0,.17-1.37c0-.44,0-.89,0-1.36V.35h1.47Z"/><path class="cls-1" d="M87.71,2.1H71.61V.63H89.39v1L70.28,50.05H89.39v1.47H68.53V50.33Z"/><path class="cls-1" d="M123.27,40.53v1.12a11.09,11.09,0,0,1-.28,2.2,16.88,16.88,0,0,1-.88,2.77,8.68,8.68,0,0,1-1.78,2.73,9,9,0,0,1-4,2.13,17.45,17.45,0,0,1-4.93.74,17.1,17.1,0,0,1-4.9-.74,8.35,8.35,0,0,1-3.85-2.13,8.46,8.46,0,0,1-1.79-2.8,14.44,14.44,0,0,1-.8-2.9,16,16,0,0,1-.21-2.35V11.41a14.75,14.75,0,0,1,.8-5,9.12,9.12,0,0,1,2.56-3.74A7.34,7.34,0,0,1,105,1.54,12.76,12.76,0,0,1,107.1.73a17.53,17.53,0,0,1,2.24-.48,13.14,13.14,0,0,1,2.1-.18,18.1,18.1,0,0,1,2.06.14,15.73,15.73,0,0,1,2.31.46,13.86,13.86,0,0,1,2.17.77,6.47,6.47,0,0,1,1.72,1.08q3.57,3.15,3.57,8.89ZM121.8,11.41a11.71,11.71,0,0,0-.67-4.2,9.33,9.33,0,0,0-1.71-2.94A7.07,7.07,0,0,0,117.7,3a12.89,12.89,0,0,0-2.1-.87,12,12,0,0,0-2.2-.49,16.8,16.8,0,0,0-2-.14,16.54,16.54,0,0,0-3.4.38,8.35,8.35,0,0,0-3.25,1.48,8,8,0,0,0-2.42,3,11.45,11.45,0,0,0-.94,5V40.18a14.7,14.7,0,0,0,.14,3,15.69,15.69,0,0,0,.7,2.66,7,7,0,0,0,1.54,2.52,6.87,6.87,0,0,0,3.36,1.78,16.45,16.45,0,0,0,4.27.6,18.21,18.21,0,0,0,2.17-.14,13.88,13.88,0,0,0,2.2-.46,11.24,11.24,0,0,0,2-.77,4.92,4.92,0,0,0,1.47-1.08,7.27,7.27,0,0,0,1.54-2.45,15.83,15.83,0,0,0,.7-2.49,15.66,15.66,0,0,0,.21-2.76Z"/><path class="cls-1" d="M134.5,51.52H133V.63h1.19l19.39,44.59c.28.65.48,1.17.6,1.54s.22.68.31.91V.63H156V51.52h-1.26L135.56,7.28q-.15-.35-.6-1.44a9.91,9.91,0,0,1-.6-1.71ZM134.75.63h0Zm21.49,50.89h0Z"/><path class="cls-1" d="M24.51,66a10.38,10.38,0,0,1,1.8,6.15,11.24,11.24,0,0,1-.37,3,9.89,9.89,0,0,1-1,2.45,7,7,0,0,1-1.43,1.78,5,5,0,0,1-1.7,1,6.5,6.5,0,0,1,2.28.85A5.6,5.6,0,0,1,26,82.87a10.56,10.56,0,0,1,1.5,3.22,13.49,13.49,0,0,1,.5,3.73,12.24,12.24,0,0,1-.92,5.2,8,8,0,0,1-2.3,3,7.63,7.63,0,0,1-3,1.4,15.08,15.08,0,0,1-3.13.35H12.91V63.32h6.3a6.33,6.33,0,0,1,3.3.7A6.28,6.28,0,0,1,24.51,66ZM14,79.87h5.65a4.37,4.37,0,0,0,2.3-.63,5.93,5.93,0,0,0,1.8-1.7,8.14,8.14,0,0,0,1.15-2.49,10.58,10.58,0,0,0,.4-3,10.33,10.33,0,0,0-.42-3,8.5,8.5,0,0,0-1.18-2.46A6.19,6.19,0,0,0,21.91,65a4.11,4.11,0,0,0-2.2-.62H14Zm4.7,18.85A9.9,9.9,0,0,0,22.74,98,6.48,6.48,0,0,0,25.31,96a7.07,7.07,0,0,0,1.33-2.85A13,13,0,0,0,27,89.82q-.09-4.6-2.07-6.75c-1.32-1.44-3.39-2.15-6.23-2.15H14v17.8Z"/><path class="cls-1" d="M50.71,99.72h-1.1l-2.25-11h-8.7l-2.35,11h-1.1l7.35-36.35h.85Zm-3.65-12L43,66.12l-4.2,21.6ZM42.81,63.37h0Z"/><path class="cls-1" d="M73.16,91.42v.77A11.82,11.82,0,0,1,73,94a12.76,12.76,0,0,1-.6,2.2,6.1,6.1,0,0,1-1.28,2,7.12,7.12,0,0,1-5.4,2,6.64,6.64,0,0,1-5.25-2,6.29,6.29,0,0,1-1.32-2,9.79,9.79,0,0,1-.58-2.08,8.76,8.76,0,0,1-.12-1.67c0-.47,0-.75,0-.85V71a8.14,8.14,0,0,1,2.4-6.25,7.27,7.27,0,0,1,2.23-1.35,7,7,0,0,1,2.62-.5,7.54,7.54,0,0,1,4.9,1.8,6.66,6.66,0,0,1,1.93,2.87,11.39,11.39,0,0,1,.67,4h-1.1a9.24,9.24,0,0,0-.57-3.4A7.13,7.13,0,0,0,70,65.79,6.25,6.25,0,0,0,65.71,64a6.46,6.46,0,0,0-2.27.42,5.8,5.8,0,0,0-2,1.28,6,6,0,0,0-1.4,2.2A8.66,8.66,0,0,0,59.51,71V91.67a14.22,14.22,0,0,0,.13,2.12,8.78,8.78,0,0,0,.5,1.88,5.49,5.49,0,0,0,1.12,1.8,5.75,5.75,0,0,0,4.45,1.75,6,6,0,0,0,4.6-1.75,5.34,5.34,0,0,0,1.13-1.83,10.48,10.48,0,0,0,.52-2,14.76,14.76,0,0,0,.15-2.25Z"/><path class="cls-1" d="M98.56,63.37V99.72h-1V84.17H83.81V99.72h-1V63.37h1V83.22h13.7V63.37h1Z"/><path class="cls-1" d="M122.81,98.77v1h-14.1V63.37h13.9v.95H109.76v18.9h10v1h-10v14.6Z"/><path class="cls-1" d="M137.91,64.37h-8.3v-1h17.5v1l0,0H139V99.72h-1.05Z"/></g></g></svg>